<?xml version="1.0" encoding="utf-8" standalone="no"?>
<!DOCTYPE svg PUBLIC "-//W3C//DTD SVG 1.1//EN"
  "http://www.w3.org/Graphics/SVG/1.1/DTD/svg11.dtd">
<svg xmlns:xlink="http://www.w3.org/1999/xlink" width="369.54pt" height="151.55986pt" viewBox="0 0 369.54 151.55986" xmlns="http://www.w3.org/2000/svg" version="1.1">
 <metadata>
  <rdf:RDF xmlns:dc="http://purl.org/dc/elements/1.1/" xmlns:cc="http://creativecommons.org/ns#" xmlns:rdf="http://www.w3.org/1999/02/22-rdf-syntax-ns#">
   <cc:Work>
    <dc:type rdf:resource="http://purl.org/dc/dcmitype/StillImage"/>
    <dc:date>2023-08-02T18:50:23.742538</dc:date>
    <dc:format>image/svg+xml</dc:format>
    <dc:creator>
     <cc:Agent>
      <dc:title>Matplotlib v3.7.1, https://matplotlib.org/</dc:title>
     </cc:Agent>
    </dc:creator>
   </cc:Work>
  </rdf:RDF>
 </metadata>
 <defs>
  <style type="text/css">*{stroke-linejoin: round; stroke-linecap: butt}</style>
 </defs>
 <g id="figure_1">
  <g id="patch_1">
   <path d="M 0 151.55986 
L 369.54 151.55986 
L 369.54 0 
L 0 0 
z
" style="fill: #ffffff"/>
  </g>
  <g id="axes_1">
   <g id="line2d_1">
    <path d="M 22.77 31.040916 
L 58.77 31.040916 
L 58.90407 28.076729 
L 59.31176 25.085809 
L 59.984001 22.318999 
L 60.889538 20.008347 
L 61.414567 19.086608 
L 61.977547 18.347645 
L 62.569767 17.807034 
L 63.181902 17.476172 
L 63.804207 17.362031 
L 64.42672 17.467018 
L 65.039478 17.78892 
L 65.632723 18.320951 
L 66.197106 19.051897 
L 66.723888 19.966352 
L 67.633825 22.265224 
L 68.311342 25.024765 
L 68.72474 28.013536 
L 68.864472 30.980873 
L 68.743942 33.67791 
L 68.398382 35.878451 
L 67.881898 37.39794 
L 67.580537 37.859905 
L 67.262928 38.108939 
L 66.938923 38.139794 
L 66.618509 37.951819 
L 66.311597 37.548976 
L 65.776292 36.137001 
L 65.403029 34.02229 
L 65.248236 31.3822 
L 65.350019 28.438152 
L 65.724963 25.437058 
L 66.366748 22.630615 
L 67.246671 20.254196 
L 67.761402 19.291422 
L 68.316057 18.507108 
L 68.902102 17.917785 
L 69.510342 17.535875 
L 70.131113 17.369428 
L 70.754487 17.421954 
L 71.370482 17.692343 
L 71.969271 18.174898 
L 72.54139 18.859447 
L 73.077935 19.731561 
L 74.012621 21.961386 
L 74.72006 24.677363 
L 75.166046 27.651705 
L 75.338297 30.634959 
L 75.24749 33.376925 
L 74.926365 35.647638 
L 74.426977 37.256657 
L 74.130936 37.768347 
L 73.816332 38.069036 
L 73.492952 38.152386 
L 73.170768 38.016641 
L 72.859731 37.664662 
L 72.569551 37.103868 
L 72.088228 35.407268 
L 71.792289 33.069134 
L 71.731678 30.285561 
L 71.936602 27.290002 
L 72.414998 24.333692 
L 73.151866 21.664571 
L 74.110531 19.506493 
L 74.656371 18.677777 
L 75.235713 18.040455 
L 75.839502 17.607961 
L 76.458169 17.38941 
L 77.081831 17.38941 
L 77.700498 17.607961 
L 78.304287 18.040455 
L 78.883629 18.677777 
L 79.429469 19.506493 
L 79.93346 20.509136 
L 80.787065 22.948443 
L 81.397979 25.791118 
L 81.740087 28.79875 
L 81.809821 31.719094 
L 81.626457 34.307224 
L 81.230496 36.346079 
L 80.680269 37.664662 
L 80.369232 38.016641 
L 80.047048 38.152386 
L 79.723668 38.069036 
L 79.409064 37.768347 
L 79.113023 37.256657 
L 78.613635 35.647638 
L 78.29251 33.376925 
L 78.201703 30.634959 
L 78.373954 27.651705 
L 78.81994 24.677363 
L 79.527379 21.961386 
L 80.462065 19.731561 
L 80.99861 18.859447 
L 81.570729 18.174898 
L 82.169518 17.692343 
L 82.785513 17.421954 
L 83.408887 17.369428 
L 84.029658 17.535875 
L 84.637898 17.917785 
L 85.223943 18.507108 
L 85.778598 19.291422 
L 86.293329 20.254196 
L 87.173252 22.630615 
L 87.815037 25.437058 
L 88.189981 28.438152 
L 88.291764 31.3822 
L 88.136971 34.02229 
L 87.763708 36.137001 
L 87.228403 37.548976 
L 86.921491 37.951819 
L 86.601077 38.139794 
L 86.277072 38.108939 
L 85.959463 37.859905 
L 85.658102 37.39794 
L 85.141618 35.878451 
L 84.796058 33.67791 
L 84.675528 30.980873 
L 84.81526 28.013536 
L 85.228658 25.024765 
L 85.906175 22.265224 
L 86.816112 19.966352 
L 87.342894 19.051897 
L 87.907277 18.320951 
L 88.500522 17.78892 
L 89.11328 17.467018 
L 89.735793 17.362031 
L 90.358098 17.476172 
L 90.970233 17.807034 
L 91.562453 18.347645 
L 92.125433 19.086608 
L 92.650462 20.008347 
L 93.555999 22.318999 
L 94.22824 25.085809 
L 94.63593 28.076729 
L 94.77 31.040916 
L 130.77 31.040916 
L 130.77 31.040916 
" clip-path="url(#pa926a7532b)" style="fill: none; stroke: #000000; stroke-width: 2; stroke-linecap: round"/>
   </g>
   <g id="line2d_2">
    <path d="M 130.77 31.040916 
L 130.77 81.800916 
M 139.77 81.800916 
L 121.77 81.800916 
M 139.77 88.280916 
L 121.77 88.280916 
M 130.77 88.280916 
L 130.77 139.040916 
" clip-path="url(#pa926a7532b)" style="fill: none; stroke: #000000; stroke-width: 2; stroke-linecap: round"/>
   </g>
   <g id="line2d_3">
    <path d="M 130.77 139.040916 
L 76.77 139.040916 
L 22.77 139.040916 
" clip-path="url(#pa926a7532b)" style="fill: none; stroke: #000000; stroke-width: 2; stroke-linecap: round"/>
   </g>
   <g id="line2d_4">
    <path d="M 130.77 31.040916 
L 184.77 31.040916 
L 238.77 31.040916 
" clip-path="url(#pa926a7532b)" style="fill: none; stroke: #000000; stroke-width: 2; stroke-linecap: round"/>
   </g>
   <g id="line2d_5">
    <path d="M 238.77 31.040916 
L 238.77 67.040916 
L 247.77 70.040916 
L 229.77 76.040916 
L 247.77 82.040916 
L 229.77 88.040916 
L 247.77 94.040916 
L 229.77 100.040916 
L 238.77 103.040916 
L 238.77 139.040916 
" clip-path="url(#pa926a7532b)" style="fill: none; stroke: #000000; stroke-width: 2; stroke-linecap: round"/>
   </g>
   <g id="line2d_6">
    <path d="M 238.77 31.040916 
L 292.77 31.040916 
L 346.77 31.040916 
" clip-path="url(#pa926a7532b)" style="fill: none; stroke: #000000; stroke-width: 2; stroke-linecap: round"/>
   </g>
   <g id="line2d_7">
    <path d="M 130.77 139.040916 
L 184.77 139.040916 
L 238.77 139.040916 
" clip-path="url(#pa926a7532b)" style="fill: none; stroke: #000000; stroke-width: 2; stroke-linecap: round"/>
   </g>
   <g id="line2d_8">
    <path d="M 238.77 139.040916 
L 292.77 139.040916 
L 346.77 139.040916 
" clip-path="url(#pa926a7532b)" style="fill: none; stroke: #000000; stroke-width: 2; stroke-linecap: round"/>
   </g>
   <g id="text_1">
    <!-- L -->
    <g transform="translate(73.844766 11.578359) scale(0.105 -0.105)">
     <defs>
      <path id="DejaVuSans-4c" d="M 628 4666 
L 1259 4666 
L 1259 531 
L 3531 531 
L 3531 0 
L 628 0 
L 628 4666 
z
" transform="scale(0.015625)"/>
     </defs>
     <use xlink:href="#DejaVuSans-4c"/>
    </g>
   </g>
   <g id="text_2">
    <!-- C -->
    <g transform="translate(143.37 87.938259) scale(0.105 -0.105)">
     <defs>
      <path id="DejaVuSans-43" d="M 4122 4306 
L 4122 3641 
Q 3803 3938 3442 4084 
Q 3081 4231 2675 4231 
Q 1875 4231 1450 3742 
Q 1025 3253 1025 2328 
Q 1025 1406 1450 917 
Q 1875 428 2675 428 
Q 3081 428 3442 575 
Q 3803 722 4122 1019 
L 4122 359 
Q 3791 134 3420 21 
Q 3050 -91 2638 -91 
Q 1578 -91 968 557 
Q 359 1206 359 2328 
Q 359 3453 968 4101 
Q 1578 4750 2638 4750 
Q 3056 4750 3426 4639 
Q 3797 4528 4122 4306 
z
" transform="scale(0.015625)"/>
     </defs>
     <use xlink:href="#DejaVuSans-43"/>
    </g>
   </g>
   <g id="text_3">
    <!-- R -->
    <g transform="translate(218.874141 87.938259) scale(0.105 -0.105)">
     <defs>
      <path id="DejaVuSans-52" d="M 2841 2188 
Q 3044 2119 3236 1894 
Q 3428 1669 3622 1275 
L 4263 0 
L 3584 0 
L 2988 1197 
Q 2756 1666 2539 1819 
Q 2322 1972 1947 1972 
L 1259 1972 
L 1259 0 
L 628 0 
L 628 4666 
L 2053 4666 
Q 2853 4666 3247 4331 
Q 3641 3997 3641 3322 
Q 3641 2881 3436 2590 
Q 3231 2300 2841 2188 
z
M 1259 4147 
L 1259 2491 
L 2053 2491 
Q 2509 2491 2742 2702 
Q 2975 2913 2975 3322 
Q 2975 3731 2742 3939 
Q 2509 4147 2053 4147 
L 1259 4147 
z
" transform="scale(0.015625)"/>
     </defs>
     <use xlink:href="#DejaVuSans-52"/>
    </g>
   </g>
   <g id="text_4">
    <!-- + -->
    <g transform="translate(342.370664 60.938259) scale(0.105 -0.105)">
     <defs>
      <path id="DejaVuSans-2b" d="M 2944 4013 
L 2944 2272 
L 4684 2272 
L 4684 1741 
L 2944 1741 
L 2944 0 
L 2419 0 
L 2419 1741 
L 678 1741 
L 678 2272 
L 2419 2272 
L 2419 4013 
L 2944 4013 
z
" transform="scale(0.015625)"/>
     </defs>
     <use xlink:href="#DejaVuSans-2b"/>
    </g>
   </g>
   <g id="text_5">
    <!-- $y(t)$ -->
    <g transform="translate(337.4775 87.928416) scale(0.105 -0.105)">
     <defs>
      <path id="DejaVuSans-Oblique-79" d="M 1588 -325 
Q 1188 -997 936 -1164 
Q 684 -1331 294 -1331 
L -159 -1331 
L -63 -850 
L 269 -850 
Q 509 -850 678 -719 
Q 847 -588 1056 -206 
L 1234 128 
L 459 3500 
L 1069 3500 
L 1650 819 
L 3256 3500 
L 3859 3500 
L 1588 -325 
z
" transform="scale(0.015625)"/>
      <path id="DejaVuSans-28" d="M 1984 4856 
Q 1566 4138 1362 3434 
Q 1159 2731 1159 2009 
Q 1159 1288 1364 580 
Q 1569 -128 1984 -844 
L 1484 -844 
Q 1016 -109 783 600 
Q 550 1309 550 2009 
Q 550 2706 781 3412 
Q 1013 4119 1484 4856 
L 1984 4856 
z
" transform="scale(0.015625)"/>
      <path id="DejaVuSans-Oblique-74" d="M 2706 3500 
L 2619 3053 
L 1472 3053 
L 1100 1153 
Q 1081 1047 1072 975 
Q 1063 903 1063 863 
Q 1063 663 1183 572 
Q 1303 481 1569 481 
L 2150 481 
L 2053 0 
L 1503 0 
Q 991 0 739 200 
Q 488 400 488 806 
Q 488 878 497 964 
Q 506 1050 525 1153 
L 897 3053 
L 409 3053 
L 500 3500 
L 978 3500 
L 1172 4494 
L 1747 4494 
L 1556 3500 
L 2706 3500 
z
" transform="scale(0.015625)"/>
      <path id="DejaVuSans-29" d="M 513 4856 
L 1013 4856 
Q 1481 4119 1714 3412 
Q 1947 2706 1947 2009 
Q 1947 1309 1714 600 
Q 1481 -109 1013 -844 
L 513 -844 
Q 928 -128 1133 580 
Q 1338 1288 1338 2009 
Q 1338 2731 1133 3434 
Q 928 4138 513 4856 
z
" transform="scale(0.015625)"/>
     </defs>
     <use xlink:href="#DejaVuSans-Oblique-79" transform="translate(0 0.125)"/>
     <use xlink:href="#DejaVuSans-28" transform="translate(59.179688 0.125)"/>
     <use xlink:href="#DejaVuSans-Oblique-74" transform="translate(98.193359 0.125)"/>
     <use xlink:href="#DejaVuSans-29" transform="translate(137.402344 0.125)"/>
    </g>
   </g>
   <g id="text_6">
    <!-- - -->
    <g transform="translate(344.875898 114.938259) scale(0.105 -0.105)">
     <defs>
      <path id="DejaVuSans-2d" d="M 313 2009 
L 1997 2009 
L 1997 1497 
L 313 1497 
L 313 2009 
z
" transform="scale(0.015625)"/>
     </defs>
     <use xlink:href="#DejaVuSans-2d"/>
    </g>
   </g>
   <g id="text_7">
    <!-- + -->
    <g transform="translate(18.370664 60.938259) scale(0.105 -0.105)">
     <use xlink:href="#DejaVuSans-2b"/>
    </g>
   </g>
   <g id="text_8">
    <!-- $x(t)$ -->
    <g transform="translate(13.4775 87.938259) scale(0.105 -0.105)">
     <defs>
      <path id="DejaVuSans-Oblique-78" d="M 3841 3500 
L 2234 1784 
L 3219 0 
L 2559 0 
L 1819 1388 
L 531 0 
L -166 0 
L 1556 1844 
L 641 3500 
L 1300 3500 
L 1972 2234 
L 3144 3500 
L 3841 3500 
z
" transform="scale(0.015625)"/>
     </defs>
     <use xlink:href="#DejaVuSans-Oblique-78" transform="translate(0 0.125)"/>
     <use xlink:href="#DejaVuSans-28" transform="translate(59.179688 0.125)"/>
     <use xlink:href="#DejaVuSans-Oblique-74" transform="translate(98.193359 0.125)"/>
     <use xlink:href="#DejaVuSans-29" transform="translate(137.402344 0.125)"/>
    </g>
   </g>
   <g id="text_9">
    <!-- - -->
    <g transform="translate(20.875898 114.938259) scale(0.105 -0.105)">
     <use xlink:href="#DejaVuSans-2d"/>
    </g>
   </g>
   <g id="patch_2">
    <path d="M 22.77 33.740916 
C 23.486048 33.740916 24.172866 33.456427 24.679188 32.950104 
C 25.185511 32.443781 25.47 31.756964 25.47 31.040916 
C 25.47 30.324867 25.185511 29.63805 24.679188 29.131727 
C 24.172866 28.625405 23.486048 28.340916 22.77 28.340916 
C 22.053952 28.340916 21.367134 28.625405 20.860812 29.131727 
C 20.354489 29.63805 20.07 30.324867 20.07 31.040916 
C 20.07 31.756964 20.354489 32.443781 20.860812 32.950104 
C 21.367134 33.456427 22.053952 33.740916 22.77 33.740916 
z
" clip-path="url(#pa926a7532b)" style="stroke: #000000; stroke-width: 2; stroke-linejoin: miter"/>
   </g>
   <g id="patch_3">
    <path d="M 22.77 141.740916 
C 23.486048 141.740916 24.172866 141.456427 24.679188 140.950104 
C 25.185511 140.443781 25.47 139.756964 25.47 139.040916 
C 25.47 138.324867 25.185511 137.63805 24.679188 137.131727 
C 24.172866 136.625405 23.486048 136.340916 22.77 136.340916 
C 22.053952 136.340916 21.367134 136.625405 20.860812 137.131727 
C 20.354489 137.63805 20.07 138.324867 20.07 139.040916 
C 20.07 139.756964 20.354489 140.443781 20.860812 140.950104 
C 21.367134 141.456427 22.053952 141.740916 22.77 141.740916 
z
" clip-path="url(#pa926a7532b)" style="stroke: #000000; stroke-width: 2; stroke-linejoin: miter"/>
   </g>
   <g id="patch_4">
    <path d="M 346.77 33.740916 
C 347.486048 33.740916 348.172866 33.456427 348.679188 32.950104 
C 349.185511 32.443781 349.47 31.756964 349.47 31.040916 
C 349.47 30.324867 349.185511 29.63805 348.679188 29.131727 
C 348.172866 28.625405 347.486048 28.340916 346.77 28.340916 
C 346.053952 28.340916 345.367134 28.625405 344.860812 29.131727 
C 344.354489 29.63805 344.07 30.324867 344.07 31.040916 
C 344.07 31.756964 344.354489 32.443781 344.860812 32.950104 
C 345.367134 33.456427 346.053952 33.740916 346.77 33.740916 
z
" clip-path="url(#pa926a7532b)" style="stroke: #000000; stroke-width: 2; stroke-linejoin: miter"/>
   </g>
   <g id="patch_5">
    <path d="M 346.77 141.740916 
C 347.486048 141.740916 348.172866 141.456427 348.679188 140.950104 
C 349.185511 140.443781 349.47 139.756964 349.47 139.040916 
C 349.47 138.324867 349.185511 137.63805 348.679188 137.131727 
C 348.172866 136.625405 347.486048 136.340916 346.77 136.340916 
C 346.053952 136.340916 345.367134 136.625405 344.860812 137.131727 
C 344.354489 137.63805 344.07 138.324867 344.07 139.040916 
C 344.07 139.756964 344.354489 140.443781 344.860812 140.950104 
C 345.367134 141.456427 346.053952 141.740916 346.77 141.740916 
z
" clip-path="url(#pa926a7532b)" style="stroke: #000000; stroke-width: 2; stroke-linejoin: miter"/>
   </g>
  </g>
 </g>
 <defs>
  <clipPath id="pa926a7532b">
   <rect x="3.6" y="11.143087" width="362.34" height="136.816773"/>
  </clipPath>
 </defs>
</svg>