<?xml version="1.0" encoding="utf-8" standalone="no"?>
<!DOCTYPE svg PUBLIC "-//W3C//DTD SVG 1.1//EN"
  "http://www.w3.org/Graphics/SVG/1.1/DTD/svg11.dtd">
<svg xmlns:xlink="http://www.w3.org/1999/xlink" width="329.886pt" height="149.702052pt" viewBox="0 0 329.886 149.702052" xmlns="http://www.w3.org/2000/svg" version="1.1">
 <metadata>
  <rdf:RDF xmlns:dc="http://purl.org/dc/elements/1.1/" xmlns:cc="http://creativecommons.org/ns#" xmlns:rdf="http://www.w3.org/1999/02/22-rdf-syntax-ns#">
   <cc:Work>
    <dc:type rdf:resource="http://purl.org/dc/dcmitype/StillImage"/>
    <dc:date>2022-07-05T09:14:10.814367</dc:date>
    <dc:format>image/svg+xml</dc:format>
    <dc:creator>
     <cc:Agent>
      <dc:title>Matplotlib v3.5.0, https://matplotlib.org/</dc:title>
     </cc:Agent>
    </dc:creator>
   </cc:Work>
  </rdf:RDF>
 </metadata>
 <defs>
  <style type="text/css">*{stroke-linejoin: round; stroke-linecap: butt}</style>
 </defs>
 <g id="figure_1">
  <g id="patch_1">
   <path d="M 0 149.702052 
L 329.886 149.702052 
L 329.886 0 
L 0 0 
L 0 149.702052 
z
" style="fill: none"/>
  </g>
  <g id="axes_1">
   <g id="line2d_1">
    <path d="M 24.183 45.347052 
L 54.783 45.347052 
L 54.896959 42.827493 
L 55.243496 40.285211 
L 55.814901 37.933422 
L 56.584607 35.969369 
L 57.509415 34.557771 
L 58.012802 34.098253 
L 58.533117 33.81702 
L 59.062076 33.72 
L 59.591212 33.809239 
L 60.112057 34.082855 
L 60.616314 34.535082 
L 61.09604 35.156386 
L 61.952855 36.850557 
L 62.631997 39.023282 
L 63.097862 41.492336 
L 63.332734 44.050644 
L 63.33827 46.483644 
L 63.13536 48.587285 
L 62.762376 50.185138 
L 62.271956 51.143192 
L 62.001989 51.354872 
L 61.726585 51.381098 
L 61.454233 51.221319 
L 61.193357 50.878903 
L 60.738348 49.678724 
L 60.421075 47.88122 
L 60.289501 45.637143 
L 60.376016 43.134702 
L 60.694719 40.583772 
L 61.240236 38.198296 
L 61.98817 36.17834 
L 62.897148 34.693315 
L 63.395287 34.19239 
L 63.912291 33.867767 
L 64.439946 33.726287 
L 64.969814 33.770934 
L 65.49341 34.000765 
L 66.002381 34.410937 
L 66.488681 34.992804 
L 67.363642 36.619202 
L 68.066267 38.743556 
L 68.558982 41.187701 
L 68.821819 43.746648 
L 68.85409 46.205784 
L 68.674442 48.358864 
L 68.319297 50.025313 
L 67.839796 51.065368 
L 67.572382 51.320954 
L 67.297509 51.391802 
L 67.023653 51.276418 
L 66.759271 50.977236 
L 66.291579 49.85644 
L 65.955012 48.123414 
L 65.799152 45.923503 
L 65.858426 43.441211 
L 66.149218 40.884724 
L 66.668494 38.46845 
L 67.394059 36.395039 
L 68.286415 34.838384 
L 68.778856 34.29666 
L 69.292077 33.92904 
L 69.817944 33.743272 
L 70.348056 33.743272 
L 70.873923 33.92904 
L 71.387144 34.29666 
L 71.879585 34.838384 
L 72.771941 36.395039 
L 73.497506 38.46845 
L 74.016782 40.884724 
L 74.307574 43.441211 
L 74.366848 45.923503 
L 74.210988 48.123414 
L 73.874421 49.85644 
L 73.406729 50.977236 
L 73.142347 51.276418 
L 72.868491 51.391802 
L 72.593618 51.320954 
L 72.326204 51.065368 
L 71.846703 50.025313 
L 71.491558 48.358864 
L 71.31191 46.205784 
L 71.344181 43.746648 
L 71.607018 41.187701 
L 72.099733 38.743556 
L 72.802358 36.619202 
L 73.677319 34.992804 
L 74.163619 34.410937 
L 74.67259 34.000765 
L 75.196186 33.770934 
L 75.726054 33.726287 
L 76.253709 33.867767 
L 76.770713 34.19239 
L 77.268852 34.693315 
L 77.740309 35.359982 
L 78.574877 37.131139 
L 79.225779 39.357317 
L 79.65978 41.85181 
L 79.861834 44.405408 
L 79.836353 46.803945 
L 79.606826 48.84626 
L 79.21386 50.361066 
L 78.711767 51.221319 
L 78.439415 51.381098 
L 78.164011 51.354872 
L 77.894044 51.143192 
L 77.637887 50.750522 
L 77.198875 49.458957 
L 76.905149 47.588497 
L 76.802698 45.296015 
L 76.921471 42.773779 
L 77.272859 40.233324 
L 77.848749 37.887714 
L 78.622195 35.933673 
L 79.549686 34.535082 
L 80.053943 34.082855 
L 80.574788 33.809239 
L 81.103924 33.72 
L 81.632883 33.81702 
L 82.153198 34.098253 
L 82.656585 34.557771 
L 83.135118 35.18589 
L 83.988687 36.891693 
L 84.663673 39.072599 
L 85.124821 41.545699 
L 85.354809 44.103577 
L 85.383 45.347052 
L 115.983 45.347052 
L 115.983 45.347052 
" clip-path="url(#p4812aa5518)" style="fill: none; stroke: #000000; stroke-width: 2; stroke-linecap: round"/>
   </g>
   <g id="line2d_2">
    <path d="M 115.983 45.347052 
L 115.983 88.493052 
M 123.633 88.493052 
L 108.333 88.493052 
M 123.633 94.001052 
L 108.333 94.001052 
M 115.983 94.001052 
L 115.983 137.147052 
" clip-path="url(#p4812aa5518)" style="fill: none; stroke: #000000; stroke-width: 2; stroke-linecap: round"/>
   </g>
   <g id="line2d_3">
    <path d="M 115.983 137.147052 
L 70.083 137.147052 
L 24.183 137.147052 
" clip-path="url(#p4812aa5518)" style="fill: none; stroke: #000000; stroke-width: 2; stroke-linecap: round"/>
   </g>
   <g id="line2d_4">
    <path d="M 115.983 45.347052 
L 161.883 45.347052 
L 207.783 45.347052 
" clip-path="url(#p4812aa5518)" style="fill: none; stroke: #000000; stroke-width: 2; stroke-linecap: round"/>
   </g>
   <g id="line2d_5">
    <path d="M 207.783 45.347052 
L 207.783 75.947052 
L 215.433 78.497052 
L 200.133 83.597052 
L 215.433 88.697052 
L 200.133 93.797052 
L 215.433 98.897052 
L 200.133 103.997052 
L 207.783 106.547052 
L 207.783 137.147052 
" clip-path="url(#p4812aa5518)" style="fill: none; stroke: #000000; stroke-width: 2; stroke-linecap: round"/>
   </g>
   <g id="line2d_6">
    <path d="M 207.783 45.347052 
L 253.683 45.347052 
L 299.583 45.347052 
" clip-path="url(#p4812aa5518)" style="fill: none; stroke: #000000; stroke-width: 2; stroke-linecap: round"/>
   </g>
   <g id="line2d_7">
    <path d="M 115.983 137.147052 
L 161.883 137.147052 
L 207.783 137.147052 
" clip-path="url(#p4812aa5518)" style="fill: none; stroke: #000000; stroke-width: 2; stroke-linecap: round"/>
   </g>
   <g id="line2d_8">
    <path d="M 207.783 137.147052 
L 253.683 137.147052 
L 299.583 137.147052 
" clip-path="url(#p4812aa5518)" style="fill: none; stroke: #000000; stroke-width: 2; stroke-linecap: round"/>
   </g>
   <g id="text_1">
    <g clip-path="url(#p4812aa5518)">
     <!-- L -->
     <g transform="translate(67.157766 28.476328)scale(0.105 -0.105)">
      <defs>
       <path id="DejaVuSans-4c" d="M 628 4666 
L 1259 4666 
L 1259 531 
L 3531 531 
L 3531 0 
L 628 0 
L 628 4666 
z
" transform="scale(0.015625)"/>
      </defs>
      <use xlink:href="#DejaVuSans-4c"/>
     </g>
    </g>
   </g>
   <g id="text_2">
    <g clip-path="url(#p4812aa5518)">
     <!-- C -->
     <g transform="translate(126.693 94.144396)scale(0.105 -0.105)">
      <defs>
       <path id="DejaVuSans-43" d="M 4122 4306 
L 4122 3641 
Q 3803 3938 3442 4084 
Q 3081 4231 2675 4231 
Q 1875 4231 1450 3742 
Q 1025 3253 1025 2328 
Q 1025 1406 1450 917 
Q 1875 428 2675 428 
Q 3081 428 3442 575 
Q 3803 722 4122 1019 
L 4122 359 
Q 3791 134 3420 21 
Q 3050 -91 2638 -91 
Q 1578 -91 968 557 
Q 359 1206 359 2328 
Q 359 3453 968 4101 
Q 1578 4750 2638 4750 
Q 3056 4750 3426 4639 
Q 3797 4528 4122 4306 
z
" transform="scale(0.015625)"/>
      </defs>
      <use xlink:href="#DejaVuSans-43"/>
     </g>
    </g>
   </g>
   <g id="text_3">
    <g clip-path="url(#p4812aa5518)">
     <!-- R -->
     <g transform="translate(189.777141 94.144396)scale(0.105 -0.105)">
      <defs>
       <path id="DejaVuSans-52" d="M 2841 2188 
Q 3044 2119 3236 1894 
Q 3428 1669 3622 1275 
L 4263 0 
L 3584 0 
L 2988 1197 
Q 2756 1666 2539 1819 
Q 2322 1972 1947 1972 
L 1259 1972 
L 1259 0 
L 628 0 
L 628 4666 
L 2053 4666 
Q 2853 4666 3247 4331 
Q 3641 3997 3641 3322 
Q 3641 2881 3436 2590 
Q 3231 2300 2841 2188 
z
M 1259 4147 
L 1259 2491 
L 2053 2491 
Q 2509 2491 2742 2702 
Q 2975 2913 2975 3322 
Q 2975 3731 2742 3939 
Q 2509 4147 2053 4147 
L 1259 4147 
z
" transform="scale(0.015625)"/>
      </defs>
      <use xlink:href="#DejaVuSans-52"/>
     </g>
    </g>
   </g>
   <g id="text_4">
    <g clip-path="url(#p4812aa5518)">
     <!-- + -->
     <g transform="translate(295.183664 71.194396)scale(0.105 -0.105)">
      <defs>
       <path id="DejaVuSans-2b" d="M 2944 4013 
L 2944 2272 
L 4684 2272 
L 4684 1741 
L 2944 1741 
L 2944 0 
L 2419 0 
L 2419 1741 
L 678 1741 
L 678 2272 
L 2419 2272 
L 2419 4013 
L 2944 4013 
z
" transform="scale(0.015625)"/>
      </defs>
      <use xlink:href="#DejaVuSans-2b"/>
     </g>
    </g>
   </g>
   <g id="text_5">
    <g clip-path="url(#p4812aa5518)">
     <!-- $y(t)$ -->
     <g transform="translate(290.2905 94.134552)scale(0.105 -0.105)">
      <defs>
       <path id="DejaVuSans-Oblique-79" d="M 1588 -325 
Q 1188 -997 936 -1164 
Q 684 -1331 294 -1331 
L -159 -1331 
L -63 -850 
L 269 -850 
Q 509 -850 678 -719 
Q 847 -588 1056 -206 
L 1234 128 
L 459 3500 
L 1069 3500 
L 1650 819 
L 3256 3500 
L 3859 3500 
L 1588 -325 
z
" transform="scale(0.015625)"/>
       <path id="DejaVuSans-28" d="M 1984 4856 
Q 1566 4138 1362 3434 
Q 1159 2731 1159 2009 
Q 1159 1288 1364 580 
Q 1569 -128 1984 -844 
L 1484 -844 
Q 1016 -109 783 600 
Q 550 1309 550 2009 
Q 550 2706 781 3412 
Q 1013 4119 1484 4856 
L 1984 4856 
z
" transform="scale(0.015625)"/>
       <path id="DejaVuSans-Oblique-74" d="M 2706 3500 
L 2619 3053 
L 1472 3053 
L 1100 1153 
Q 1081 1047 1072 975 
Q 1063 903 1063 863 
Q 1063 663 1183 572 
Q 1303 481 1569 481 
L 2150 481 
L 2053 0 
L 1503 0 
Q 991 0 739 200 
Q 488 400 488 806 
Q 488 878 497 964 
Q 506 1050 525 1153 
L 897 3053 
L 409 3053 
L 500 3500 
L 978 3500 
L 1172 4494 
L 1747 4494 
L 1556 3500 
L 2706 3500 
z
" transform="scale(0.015625)"/>
       <path id="DejaVuSans-29" d="M 513 4856 
L 1013 4856 
Q 1481 4119 1714 3412 
Q 1947 2706 1947 2009 
Q 1947 1309 1714 600 
Q 1481 -109 1013 -844 
L 513 -844 
Q 928 -128 1133 580 
Q 1338 1288 1338 2009 
Q 1338 2731 1133 3434 
Q 928 4138 513 4856 
z
" transform="scale(0.015625)"/>
      </defs>
      <use xlink:href="#DejaVuSans-Oblique-79" transform="translate(0 0.125)"/>
      <use xlink:href="#DejaVuSans-28" transform="translate(59.179688 0.125)"/>
      <use xlink:href="#DejaVuSans-Oblique-74" transform="translate(98.193359 0.125)"/>
      <use xlink:href="#DejaVuSans-29" transform="translate(137.402344 0.125)"/>
     </g>
    </g>
   </g>
   <g id="text_6">
    <g clip-path="url(#p4812aa5518)">
     <!-- - -->
     <g transform="translate(297.688898 117.094396)scale(0.105 -0.105)">
      <defs>
       <path id="DejaVuSans-2d" d="M 313 2009 
L 1997 2009 
L 1997 1497 
L 313 1497 
L 313 2009 
z
" transform="scale(0.015625)"/>
      </defs>
      <use xlink:href="#DejaVuSans-2d"/>
     </g>
    </g>
   </g>
   <g id="text_7">
    <g clip-path="url(#p4812aa5518)">
     <!-- + -->
     <g transform="translate(19.783664 71.194396)scale(0.105 -0.105)">
      <use xlink:href="#DejaVuSans-2b"/>
     </g>
    </g>
   </g>
   <g id="text_8">
    <g clip-path="url(#p4812aa5518)">
     <!-- $x(t)$ -->
     <g transform="translate(14.8905 94.144396)scale(0.105 -0.105)">
      <defs>
       <path id="DejaVuSans-Oblique-78" d="M 3841 3500 
L 2234 1784 
L 3219 0 
L 2559 0 
L 1819 1388 
L 531 0 
L -166 0 
L 1556 1844 
L 641 3500 
L 1300 3500 
L 1972 2234 
L 3144 3500 
L 3841 3500 
z
" transform="scale(0.015625)"/>
      </defs>
      <use xlink:href="#DejaVuSans-Oblique-78" transform="translate(0 0.125)"/>
      <use xlink:href="#DejaVuSans-28" transform="translate(59.179688 0.125)"/>
      <use xlink:href="#DejaVuSans-Oblique-74" transform="translate(98.193359 0.125)"/>
      <use xlink:href="#DejaVuSans-29" transform="translate(137.402344 0.125)"/>
     </g>
    </g>
   </g>
   <g id="text_9">
    <g clip-path="url(#p4812aa5518)">
     <!-- - -->
     <g transform="translate(22.288898 117.094396)scale(0.105 -0.105)">
      <use xlink:href="#DejaVuSans-2d"/>
     </g>
    </g>
   </g>
   <g id="patch_2">
    <path d="M 24.183 47.642052 
C 24.791641 47.642052 25.375436 47.400236 25.80581 46.969862 
C 26.236184 46.539488 26.478 45.955693 26.478 45.347052 
C 26.478 44.738411 26.236184 44.154616 25.80581 43.724242 
C 25.375436 43.293867 24.791641 43.052052 24.183 43.052052 
C 23.574359 43.052052 22.990564 43.293867 22.56019 43.724242 
C 22.129816 44.154616 21.888 44.738411 21.888 45.347052 
C 21.888 45.955693 22.129816 46.539488 22.56019 46.969862 
C 22.990564 47.400236 23.574359 47.642052 24.183 47.642052 
z
" clip-path="url(#p4812aa5518)" style="stroke: #000000; stroke-width: 2; stroke-linejoin: miter"/>
   </g>
   <g id="patch_3">
    <path d="M 24.183 139.442052 
C 24.791641 139.442052 25.375436 139.200236 25.80581 138.769862 
C 26.236184 138.339488 26.478 137.755693 26.478 137.147052 
C 26.478 136.538411 26.236184 135.954616 25.80581 135.524242 
C 25.375436 135.093867 24.791641 134.852052 24.183 134.852052 
C 23.574359 134.852052 22.990564 135.093867 22.56019 135.524242 
C 22.129816 135.954616 21.888 136.538411 21.888 137.147052 
C 21.888 137.755693 22.129816 138.339488 22.56019 138.769862 
C 22.990564 139.200236 23.574359 139.442052 24.183 139.442052 
z
" clip-path="url(#p4812aa5518)" style="stroke: #000000; stroke-width: 2; stroke-linejoin: miter"/>
   </g>
   <g id="patch_4">
    <path d="M 299.583 47.642052 
C 300.191641 47.642052 300.775436 47.400236 301.20581 46.969862 
C 301.636184 46.539488 301.878 45.955693 301.878 45.347052 
C 301.878 44.738411 301.636184 44.154616 301.20581 43.724242 
C 300.775436 43.293867 300.191641 43.052052 299.583 43.052052 
C 298.974359 43.052052 298.390564 43.293867 297.96019 43.724242 
C 297.529816 44.154616 297.288 44.738411 297.288 45.347052 
C 297.288 45.955693 297.529816 46.539488 297.96019 46.969862 
C 298.390564 47.400236 298.974359 47.642052 299.583 47.642052 
z
" clip-path="url(#p4812aa5518)" style="stroke: #000000; stroke-width: 2; stroke-linejoin: miter"/>
   </g>
   <g id="patch_5">
    <path d="M 299.583 139.442052 
C 300.191641 139.442052 300.775436 139.200236 301.20581 138.769862 
C 301.636184 138.339488 301.878 137.755693 301.878 137.147052 
C 301.878 136.538411 301.636184 135.954616 301.20581 135.524242 
C 300.775436 135.093867 300.191641 134.852052 299.583 134.852052 
C 298.974359 134.852052 298.390564 135.093867 297.96019 135.524242 
C 297.529816 135.954616 297.288 136.538411 297.288 137.147052 
C 297.288 137.755693 297.529816 138.339488 297.96019 138.769862 
C 298.390564 139.200236 298.974359 139.442052 299.583 139.442052 
z
" clip-path="url(#p4812aa5518)" style="stroke: #000000; stroke-width: 2; stroke-linejoin: miter"/>
   </g>
  </g>
 </g>
 <defs>
  <clipPath id="p4812aa5518">
   <rect x="7.2" y="7.2" width="315.486" height="135.302052"/>
  </clipPath>
 </defs>
</svg>
